<svg width="128" height="128" viewBox="0 0 128 128" fill="none" xmlns="http://www.w3.org/2000/svg">
<path d="M122.648 116.242L101.611 95.205C109.813 85.5473 114.77 73.0488 114.77 59.3849C114.77 28.7963 89.9735 4 59.3849 4C28.7963 4 4 28.7963 4 59.3849C4 89.9735 28.7963 114.77 59.3849 114.77C72.9865 114.77 85.4365 109.859 95.0758 101.722L116.122 122.768C117.924 124.571 120.846 124.571 122.648 122.768C124.451 120.966 124.451 118.044 122.648 116.242ZM59.3849 105.539C33.894 105.539 13.2308 84.8758 13.2308 59.3849C13.2308 33.894 33.894 13.2308 59.3849 13.2308C84.8758 13.2308 105.539 33.894 105.539 59.3849C105.539 84.8758 84.8758 105.539 59.3849 105.539Z" fill="white"/>
</svg>
