<svg width="128" height="128" viewBox="0 0 128 128" fill="none" xmlns="http://www.w3.org/2000/svg">
<path d="M120.002 22.4634C120.002 17.9194 115.97 13.8874 108.61 11.1354C102.146 8.70337 93.5702 7.35938 84.5462 7.35938C75.5222 7.35938 66.9462 8.70337 60.4822 11.1354C53.0582 13.8874 49.0262 17.9194 49.0262 22.4634V44.1594C46.2102 43.9034 43.2662 43.7114 40.2582 43.7114C31.2342 43.7114 22.6582 45.0554 16.1942 47.4874C8.83425 50.3034 4.80225 54.3354 4.80225 58.8794V105.535C4.80225 110.079 8.83425 114.111 16.1942 116.863C22.6582 119.295 31.2342 120.639 40.2582 120.639C49.2822 120.639 57.8582 119.295 64.3222 116.863C70.7222 114.431 74.6262 111.103 75.5222 107.263C78.4662 107.583 81.4742 107.711 84.4822 107.711C93.5062 107.711 102.082 106.367 108.546 103.935C115.906 101.183 119.938 97.1514 119.938 92.6074V92.4154V92.2234L120.002 22.4634ZM114.306 75.2634C114.306 79.1674 102.658 84.7354 84.4822 84.7354C81.4742 84.7354 78.5302 84.6074 75.7142 84.2874V72.6394C78.5942 72.9594 81.4742 73.0874 84.4822 73.0874C93.5062 73.0874 102.082 71.7434 108.546 69.3114C110.786 68.4794 112.706 67.5194 114.306 66.4954V75.2634ZM70.0822 75.1354C70.0822 79.0394 58.4342 84.6074 40.2582 84.6074C22.0822 84.6074 10.4342 78.9754 10.4342 75.1354V67.3914C12.0342 68.4154 13.9542 69.3754 16.1942 70.2074C22.6582 72.6394 31.2342 73.9834 40.2582 73.9834C49.2822 73.9834 57.8582 72.6394 64.3222 70.2074C66.5622 69.3754 68.4822 68.4154 70.0822 67.3914V75.1354ZM10.4342 83.6474C12.0342 84.6714 13.9542 85.6314 16.1942 86.4634C22.6582 88.8954 31.2342 90.2394 40.2582 90.2394C49.2822 90.2394 57.8582 88.8954 64.3222 86.4634C66.5622 85.6314 68.4822 84.6714 70.0822 83.6474V90.3674C70.0822 94.2714 58.4342 99.8394 40.2582 99.8394C22.0822 99.8394 10.4342 94.2074 10.4342 90.3674V83.6474ZM114.306 57.9834C114.306 61.8874 102.658 67.4554 84.4822 67.4554C81.4742 67.4554 78.5302 67.3274 75.7142 67.0074V58.8794C75.7142 57.6634 75.3942 56.4474 74.8182 55.2954C77.9542 55.6154 81.1542 55.8074 84.4822 55.8074C93.5062 55.8074 102.082 54.4634 108.546 52.0314C110.786 51.1994 112.706 50.2394 114.306 49.2154V57.9834ZM114.306 40.6394C114.306 44.5434 102.658 50.1114 84.4822 50.1114C66.3062 50.1114 54.6582 44.4794 54.6582 40.6394V30.9754C56.2582 31.9994 58.1782 32.9594 60.4182 33.7914C66.8822 36.2234 75.4582 37.5674 84.4822 37.5674C93.5062 37.5674 102.082 36.2234 108.546 33.7914C110.786 32.9594 112.706 31.9994 114.306 30.9754V40.6394ZM40.2582 115.071C22.0822 115.071 10.4342 109.439 10.4342 105.599V105.407V98.8794C12.0342 99.9034 13.9542 100.863 16.1942 101.695C22.6582 104.127 31.2342 105.471 40.2582 105.471C49.2822 105.471 57.8582 104.127 64.3222 101.695C66.5622 100.863 68.4822 99.9034 70.0822 98.8794V105.599C70.0822 109.439 58.4342 115.071 40.2582 115.071ZM84.4822 102.079C81.4742 102.079 78.5302 101.951 75.7142 101.631V89.9834C78.5942 90.3034 81.4742 90.4314 84.4822 90.4314C93.5062 90.4314 102.082 89.0874 108.546 86.6554C110.786 85.8234 112.706 84.8634 114.306 83.8394V92.6714C114.306 96.4474 102.722 102.079 84.4822 102.079Z" fill="white"/>
</svg>
