<svg width="128" height="128" viewBox="0 0 128 128" fill="none" xmlns="http://www.w3.org/2000/svg">
<path d="M9.8759 105.795C7.89025 105.795 5.92486 105.659 4 105.407C14.8907 113.16 27.8379 117.677 41.7273 117.667C87.0122 117.688 111.782 76.8104 111.782 41.3645C111.782 40.2089 111.762 39.0533 111.711 37.8976C116.523 34.1787 120.697 29.5247 124 24.1983C119.583 26.2679 114.842 27.6337 109.857 28.2115C114.943 24.9652 118.854 19.7755 120.687 13.5457C115.936 16.5398 110.668 18.6829 105.055 19.7965C100.567 14.5017 94.1646 11.1294 87.0831 11.0033C73.4875 10.7722 62.4652 22.6855 62.4652 37.614C62.4652 39.7256 62.6779 41.7952 63.1034 43.7808C42.6492 42.4045 24.5049 31.3527 12.358 14.7013C10.2406 18.6934 9.02491 23.3579 9.02491 28.3586C9.02491 37.8136 13.371 46.2181 19.9662 51.1662C15.924 50.9771 12.1351 49.7164 8.81216 47.6363V47.983C8.81216 61.1886 17.3018 72.272 28.5673 74.8563C26.5006 75.4657 24.3326 75.7808 22.0836 75.7703C20.5032 75.7598 18.9531 75.5707 17.4538 75.2451C20.5842 86.0868 29.6716 93.987 40.4508 94.2497C32.0321 101.499 21.4149 105.816 9.8759 105.795Z" fill="white"/>
</svg>
