<svg width="128" height="128" viewBox="0 0 128 128" fill="none" xmlns="http://www.w3.org/2000/svg">
<path d="M124.429 85.3001V79.0301C124.429 78.45 123.869 78.0301 123.319 78.1902L93.7088 86.7502C93.5488 86.7901 93.4087 86.88 93.2987 87.0001C90.1274 90.5032 87.4322 92.8541 86.7182 93.4769L86.6688 93.52C84.8288 95.0801 82.5487 95.9302 80.1487 95.9302H69.4287V85.0001H77.9488C78.1687 85.0001 78.3788 84.9201 78.5388 84.7801L79.6387 83.77C80.1088 83.34 80.6688 82.8201 81.3387 82.15C81.3956 82.0931 81.4533 82.0356 81.5116 81.9775C81.8637 81.6267 82.24 81.2517 82.6087 80.8401C83.0488 80.4101 83.4788 79.9301 83.8787 79.4602C84.5487 78.7401 85.1887 77.99 85.8588 77.2001C86.3388 76.6801 86.7788 76.0901 87.2088 75.5001C87.6888 74.94 88.1588 74.3101 88.5987 73.7101C88.7625 73.4695 88.9368 73.2262 89.1149 72.9777C89.2847 72.7407 89.4578 72.499 89.6287 72.2501C89.9487 71.7701 90.2687 71.2601 90.5387 70.78C91.3787 69.4801 92.0888 68.09 92.6888 66.7001C92.9642 66.1047 93.1843 65.4779 93.3984 64.8685C93.4252 64.7921 93.452 64.7159 93.4787 64.6401C93.7188 63.93 93.9187 63.2601 94.0688 62.55C94.4287 60.88 94.5087 59.2201 94.3487 57.56C94.3088 57.04 94.2687 56.53 94.1488 56.0501V55.9701C94.1087 55.6301 94.0287 55.2501 93.9187 54.9001C93.5587 53.2801 92.9987 51.66 92.2888 50.07C92.0487 49.48 91.7688 48.88 91.4988 48.3301C90.8588 47.1401 90.1887 45.9499 89.4287 44.8001C89.2762 44.5571 89.1077 44.3111 88.9395 44.0654C88.81 43.8762 88.6806 43.6872 88.5588 43.5001C88.0775 42.7578 87.5364 42.0422 87.0114 41.3478C86.8927 41.1908 86.7748 41.0349 86.6587 40.8801C86.3487 40.4731 86.0095 40.0662 85.668 39.6565C85.4807 39.432 85.2928 39.2066 85.1087 38.98C84.5888 38.35 84.0788 37.7501 83.5588 37.16C81.6988 35.06 79.7488 33.1601 78.0087 31.5401C77.6887 31.22 77.3387 30.9 76.9788 30.5901C75.6288 29.36 74.3987 28.2899 73.3687 27.4601C73.0592 27.222 72.7817 26.9874 72.5233 26.7691C72.3475 26.6206 72.1806 26.4796 72.0187 26.3501C71.7065 26.1174 71.4355 25.911 71.2081 25.7377C71.064 25.6279 70.9373 25.5314 70.8287 25.45C70.7487 25.39 70.6588 25.3501 70.5688 25.3199L69.4287 25.0001V15.56C69.4287 14.02 68.8087 12.64 67.8188 11.6299C66.8287 10.62 65.4488 10 63.9288 10C60.8887 10 58.4288 12.49 58.4288 15.56V21.9199L57.8588 21.7601L56.3087 21.32L54.8987 20.93C54.8946 20.93 54.8904 20.9283 54.8856 20.9263C54.8787 20.9234 54.8704 20.9199 54.8588 20.9199H54.8288L44.1287 18.02C43.6587 17.89 43.2587 18.4 43.4987 18.83L45.2087 21.99C45.3058 22.2329 45.4288 22.4757 45.5552 22.7253C45.6369 22.8868 45.7201 23.0511 45.7987 23.2201C46.0788 23.7799 46.3587 24.37 46.6287 24.96C46.8688 25.4799 47.1088 25.99 47.3887 26.55C47.5064 26.8133 47.6265 27.0799 47.7482 27.3502C48.1951 28.3426 48.6651 29.3862 49.1286 30.5101C49.5287 31.4601 49.9287 32.41 50.2787 33.4001C51.2388 35.89 52.1487 38.5499 52.9388 41.2801C53.1354 41.8911 53.2925 42.4823 53.4518 43.0816C53.5193 43.3356 53.5872 43.5911 53.6587 43.8501L53.7687 44.3299C54.0887 45.6001 54.3688 46.86 54.5687 48.13C54.7288 49 54.8786 49.83 54.9587 50.67C55.0788 51.6199 55.1987 52.5701 55.2388 53.5201C55.3188 54.39 55.3587 55.3001 55.3587 56.17C55.3587 58.39 55.1588 60.53 54.6887 62.55C54.6592 62.6586 54.6298 62.7685 54.6001 62.8793C54.4685 63.3708 54.332 63.8804 54.1687 64.3701C54.021 64.8945 53.8296 65.4189 53.6308 65.9634C53.5605 66.1561 53.4892 66.3513 53.4187 66.55C53.4055 66.5854 53.3923 66.6209 53.3791 66.6564C53.2321 67.0524 53.0823 67.4555 52.8987 67.8501C51.9086 70.2301 50.6787 72.6002 49.4088 74.8201C47.5487 78.1102 45.6788 81.0001 44.3687 82.8602C44.2886 82.9805 44.2104 83.0948 44.135 83.2049C44.0412 83.3419 43.9519 83.4725 43.8688 83.6001C43.4588 84.18 43.8787 85.0001 44.5887 85.0001H58.4288V95.9302H44.4286C40.6687 95.9302 37.1887 93.8001 35.5087 90.39C34.6388 88.6801 34.2987 86.8 34.4988 84.96C34.5486 84.4101 34.1387 83.8901 33.5788 83.8901H5.29867C4.81862 83.8901 4.42871 84.2801 4.42871 84.7601V85.34C4.42871 103.38 18.9988 118 36.9786 118H87.7087C97.218 118 102.618 109.335 107.925 100.817C109.404 98.4431 110.877 96.0804 112.429 93.9201C115.219 90.04 121.929 86.96 123.889 86.12C124.209 85.9801 124.429 85.66 124.429 85.3001Z" fill="white"/>
<path d="M11.9913 71.0011L11.5714 71.6612C11.2014 72.2312 11.6113 72.9911 12.3114 72.9911H38.3513C38.6414 72.9911 38.9114 72.8512 39.0714 72.6111C39.4114 72.0912 39.7315 71.5512 40.0213 71.0011C42.2715 67.2211 44.2715 63.1312 45.0014 60.1111C46.7114 52.7711 43.0614 40.981 38.8313 31.501C38.5514 30.8711 37.6815 30.8111 37.3114 31.391L11.9913 71.0011Z" fill="white"/>
</svg>
