<svg width="128" height="128" viewBox="0 0 128 128" fill="none" xmlns="http://www.w3.org/2000/svg">
<path d="M19 118.961C19 118.961 19.7275 92.7689 42.0457 81.2164L49.3605 77.0613C49.3605 77.0613 49.9111 71.353 50.4617 61.1984C50.4617 61.1984 46.2537 62.9653 50.4617 50.8691C54.6697 38.7729 49.5375 25.0458 58.1501 11.3186C58.1501 11.3186 60.7064 6.61993 63.2626 10.6002C65.8189 14.5805 68.1982 22.5217 68.1982 22.5217C68.1982 22.5217 68.9257 25.4147 72.7798 24.6963C76.6338 23.9779 81.7463 25.6088 81.7463 25.6088C81.7463 25.6088 83.3981 23.4342 86.6819 21.8227C89.9657 20.1917 92.5416 13.1631 94.9209 13.5126C97.3002 13.8815 97.1859 23.0005 95.7308 23.1753C94.2757 23.35 93.2692 24.5215 95.2945 24.3468C97.3002 24.172 92.7383 26.1525 94.0164 33.7441C95.2945 41.3358 98.9519 41.5106 96.0221 51.6263C96.0221 51.6263 99.6795 66.6155 89.6117 71.4889C89.6117 71.4889 85.2268 71.6637 86.5049 76.7313C87.783 81.7794 89.4348 85.0413 89.4348 85.0413C89.4348 85.0413 91.4405 85.585 93.0922 87.7596C94.7439 89.9342 108.449 96.788 109 119H19V118.961Z" fill="url(#paint0_linear_252_6270)" fill-opacity="0.5"/>
<defs>
<linearGradient id="paint0_linear_252_6270" x1="64" y1="9" x2="64" y2="119" gradientUnits="userSpaceOnUse">
<stop stop-color="white"/>
<stop offset="1" stop-color="white" stop-opacity="0"/>
</linearGradient>
</defs>
</svg>
