<svg width="128" height="128" viewBox="0 0 128 128" fill="none" xmlns="http://www.w3.org/2000/svg">
<path d="M63.9875 3.1875C80.1127 3.1875 95.5774 9.5932 106.98 20.9954C118.382 32.3976 124.787 47.8623 124.787 63.9875C124.787 80.1127 118.382 95.5774 106.98 106.98C95.5774 118.382 80.1127 124.787 63.9875 124.787C47.8623 124.787 32.3976 118.382 20.9954 106.98C9.5932 95.5774 3.1875 80.1127 3.1875 63.9875C3.1875 47.8623 9.5932 32.3976 20.9954 20.9954C32.3976 9.5932 47.8623 3.1875 63.9875 3.1875V3.1875ZM63.9875 33.5875C62.6432 33.5875 61.3539 34.1215 60.4033 35.0721C59.4527 36.0227 58.9187 37.312 58.9187 38.6563V69.0563L58.9571 69.6451C59.1171 71.0275 59.8403 72.2691 60.9475 73.1075L81.2163 88.3075L81.7475 88.6595C82.8196 89.2693 84.0773 89.4673 85.2849 89.2163C86.4924 88.9654 87.5671 88.2827 88.3075 87.2963L88.6595 86.7651C89.2711 85.6924 89.4701 84.4333 89.2191 83.2242C88.9681 82.0152 88.2844 80.9393 87.2963 80.1987L69.0499 66.5219V38.6563L69.0179 38.0611C68.8722 36.829 68.2797 35.6931 67.3526 34.8686C66.4255 34.0441 65.2282 33.5883 63.9875 33.5875V33.5875Z" fill="white"/>
</svg>
