<svg width="128" height="128" viewBox="0 0 128 128" fill="none" xmlns="http://www.w3.org/2000/svg">
<path d="M75.3242 24C73.1734 24.0005 71.0529 24.5143 69.1334 25.5C67.2139 26.4856 65.5492 27.9155 64.2734 29.6745C62.9977 31.4335 62.1465 33.4724 61.7885 35.6268C61.4305 37.7812 61.5757 39.991 62.2124 42.0779C62.7067 43.6026 62.7812 45.2356 62.4276 46.8002C62.0741 48.3647 61.3061 49.8013 60.2066 50.9543L51.5757 59.7223C50.7888 60.5163 49.8545 61.1435 48.8271 61.5677C47.7997 61.9919 46.6995 62.2046 45.5906 62.1934C44.657 62.1881 43.7294 62.042 42.838 61.7599C41.5174 61.3489 40.1438 61.1407 38.7626 61.1421C35.1125 61.1421 31.612 62.6151 29.031 65.2371C26.45 67.859 25 71.4152 25 75.1232C25 78.8312 26.45 82.3874 29.031 85.0094C31.612 87.6313 35.1125 89.1043 38.7626 89.1043C38.7585 91.1203 39.1836 93.1134 40.0088 94.9468C40.834 96.7802 42.0398 98.4107 43.5434 99.7264C45.047 101.042 46.8129 102.012 48.72 102.569C50.6271 103.127 52.6304 103.258 54.5923 102.956C56.5543 102.653 58.4286 101.923 60.0867 100.815C61.7448 99.7073 63.1475 98.2485 64.1987 96.5385C65.2498 94.8286 65.9244 92.9079 66.1764 90.9082C66.4283 88.9085 66.2516 86.8772 65.6583 84.9534C65.1644 83.4261 65.0912 81.7906 65.4466 80.2241C65.802 78.6576 66.5725 77.2197 67.6747 76.0661L76.5404 67.0597C77.3273 66.2657 78.2615 65.6385 79.289 65.2143C80.3164 64.7901 81.4165 64.5774 82.5255 64.5886C83.4586 64.5901 84.3862 64.7325 85.278 65.0113C87.6652 65.7649 90.2095 65.8422 92.6367 65.2348C95.0639 64.6275 97.2818 63.3585 99.0513 61.5648C100.95 59.5979 102.236 57.1065 102.75 54.4015C103.264 51.6965 102.982 48.8978 101.939 46.3545C100.897 43.8113 99.1405 41.6363 96.8889 40.1009C94.6374 38.5655 91.9905 37.7378 89.2788 37.721H89.1294C89.0317 34.1325 87.5892 30.7173 85.0967 28.1727C84.046 27.1111 82.836 26.2258 81.512 25.5498C79.5929 24.5665 77.4735 24.0543 75.3242 24.0542V24Z" fill="white"/>
</svg>
