<svg width="128" height="128" viewBox="0 0 128 128" fill="none" xmlns="http://www.w3.org/2000/svg">
<rect width="128" height="128" rx="64" fill="#DC2626"/>
<path d="M61.7564 73.0163C61.8284 74.4133 62.982 75.509 64.3808 75.509V75.509C65.7797 75.509 66.9333 74.4133 67.0053 73.0163L68.4128 45.7106L68.5716 36.2618C68.611 33.9197 66.7232 32 64.3808 32V32C62.0385 32 60.1507 33.9197 60.1901 36.2618L60.3488 45.7106L61.7564 73.0163ZM64.4192 94.4018C67.1072 94.4018 69.3344 92.4818 69.3344 89.4098C69.3344 86.3378 67.1072 84.2642 64.4192 84.2642C61.6544 84.2642 59.4272 86.3378 59.4272 89.4098C59.4272 92.4818 61.6544 94.4018 64.4192 94.4018Z" fill="white"/>
</svg>
