<svg width="128" height="128" viewBox="0 0 128 128" fill="none" xmlns="http://www.w3.org/2000/svg">
<path d="M64 4C97.1375 4 124 30.8625 124 64C124 97.1375 97.1375 124 64 124C30.8625 124 4 97.1375 4 64C4 30.8625 30.8625 4 64 4ZM83.8925 69H44.1075C45.2125 94.5225 54.6325 114 64 114C73.365 114 82.7875 94.5225 83.8925 69ZM34.0975 69L14.2475 69.0025C16.0825 87.4675 27.9625 102.977 44.3475 109.99C38.455 99.9425 34.73 85.34 34.0975 69.0025V69ZM113.753 69.0025H93.9025C93.27 85.3425 89.545 99.9425 83.6525 109.988C100.038 102.98 111.918 87.4675 113.753 69.0025V69.0025ZM44.35 18.0125L43.795 18.2525C27.6925 25.3725 16.06 40.7425 14.25 59H34.1C34.7325 42.66 38.4575 28.0575 44.35 18.0125V18.0125ZM64 14L63.625 14.01C54.385 14.52 45.2 33.82 44.1075 59H83.8925C82.7875 33.48 73.3675 14 64 14ZM83.6525 18.01L84.02 18.6475C89.7 28.6675 93.2825 43 93.9 59H113.75C111.917 40.5325 100.035 25.0225 83.65 18.01H83.6525Z" fill="white"/>
</svg>
