<svg width="128" height="128" viewBox="0 0 128 128" fill="none" xmlns="http://www.w3.org/2000/svg">
<path fill-rule="evenodd" clip-rule="evenodd" d="M45.3056 38.1517C44.9066 38.8036 44.4972 39.4725 43.9812 40.054C42.6014 41.6126 26.3724 57.8342 14.3485 69.8255C16.7138 63.8458 17.0095 52.2044 17.0095 52.2044C12.1474 31.975 19.8348 22.1784 26.6681 14.004C29.6469 10.499 29.9916 8.02365 30.2077 6.47157C30.4897 4.44615 30.5528 3.99296 35.9653 4.87534C43.2806 6.09228 47.6528 18.5209 50.0534 25.3449L50.0534 25.3449L50.0535 25.3451C50.79 27.4389 51.341 29.005 51.7344 29.5577C55.2167 34.3924 72.7598 31.6569 68.719 26.0589C75.2894 31.2435 69.1461 32.8338 69.1461 32.8338C74.1068 32.7066 74.9281 33.2155 74.9281 33.2155C77.9882 29.9833 80.4135 28.5687 82.3985 27.4109C84.1641 26.381 85.5815 25.5543 86.7877 23.8324C89.3502 20.1746 96.9062 14.0676 100.126 18.3616C103.378 22.6555 98.2532 40.9446 98.2532 40.9446C99.0745 40.8174 101.768 37.8275 101.768 37.8275C101.9 41.3581 98.1218 44.4752 98.1218 44.4752C101.078 44.4752 102.163 42.3759 102.163 42.3759C101.604 44.8569 100.553 46.5745 99.4359 47.7832C96.4463 47.2424 93.3253 47.2743 92.6026 49.628C92.6026 49.628 90.4015 53.7311 86.9191 49.628C86.2594 48.8566 85.9298 48.0932 85.6067 47.3448L85.6066 47.3447C84.2243 44.1428 82.9598 41.2138 56.4651 39.0998C56.4651 39.0998 55.6766 37.414 52.2271 35.9509C47.8004 34.0758 46.6088 36.0227 45.3056 38.1517ZM45.4558 50.6275V53.84C45.4558 53.84 48.2154 49.4188 51.6649 57.2434C52.4205 58.8973 53.9974 60.9648 56.1328 63.0323C42.9591 62.8096 38.1298 68.3759 36.5529 73.2105C34.1547 80.4626 27.6828 81.1305 27.6828 81.1305C11.5321 93.2467 15.464 102.286 17.9221 107.937C18.6841 109.689 19.3044 111.115 19.1412 112.206C18.4513 116.818 22.1964 124.42 22.1964 124.42C22.1964 124.42 10.2382 112.938 7.67573 104.604C5.11325 96.2707 8.49703 92.8674 8.49703 92.8674C6.19737 92.7401 4.32479 99.5151 4.32479 99.5151C3.27352 89.6866 4.91614 83.5479 7.2158 79.3493C14.0162 75.3734 25.0874 68.3759 31.1323 61.8236C40.2652 51.9634 45.4558 50.6275 45.4558 50.6275ZM116.384 77.2521C115.497 75.8844 114.018 74.962 112.409 74.6121C106.726 73.3988 105.051 71.181 103.102 68.6013C102.088 67.2587 101 65.8182 99.2349 64.3702C93.2558 59.5037 90.989 62.3346 90.989 62.3346C89.5763 64.3702 88.098 66.0242 86.5539 67.3283C87.9009 66.6604 89.3464 65.9288 90.0034 65.4199C91.4818 64.3384 92.3688 64.0522 93.0915 64.3702C93.1124 64.3794 93.1384 64.3907 93.1692 64.4039C93.1886 64.4123 93.21 64.4215 93.2333 64.4315C94.4523 64.9551 100.89 67.7205 106.462 73.0854C105.805 73.0854 105.115 73.149 104.393 73.2444C96.2454 74.2623 96.9352 81.1326 100.549 82.9456C102.947 84.1543 104.853 86.0627 105.838 87.176C106.66 88.1302 106.725 89.5297 105.904 90.4839C103.604 93.1239 96.9352 94.4598 96.9352 94.4598C102.487 93.6646 105.74 94.3644 107.514 95.1595C104.294 99.3899 100.056 103.366 96.5739 106.61C94.997 108.073 94.6356 123.404 94.6356 123.404C94.6356 123.404 97.2309 113.958 98.1179 109.568C98.5836 107.264 101.485 104.89 104.606 102.335C107.431 100.023 110.437 97.5628 111.982 94.8733C113.361 92.4559 114.741 88.0348 114.413 83.1046C116.121 81.9596 117.468 80.7509 117.205 79.256C117.074 78.588 116.811 77.9201 116.384 77.2521ZM108.434 93.8555C106.265 92.2015 106.791 89.2752 109.255 86.667C110.043 85.8401 111.16 85.1085 112.343 84.3769C112.146 87.5258 110.602 90.7384 108.434 93.8555ZM118.086 55.9984C121.273 57.5887 123.967 58.3203 123.967 58.3203C123.967 59.6819 123.921 60.6118 123.886 61.3354C123.831 62.4542 123.8 63.0798 124 64.0456C122.981 64.3637 122.686 64.3955 122.686 64.3955C123.343 75.3053 117.889 75.1781 112.534 74.1603C108.709 73.4331 107.415 71.8941 104.532 68.4646C103.38 67.0939 101.974 65.4212 100.05 63.3776C93.2829 56.221 89.1435 59.8152 88.8807 60.8649C88.869 60.9116 88.8546 60.978 88.8364 61.0619C88.4466 62.8616 86.3101 72.7244 71.3376 69.8981C57.6545 67.3376 55.7681 63.1211 53.6176 58.3141C53.3104 57.6274 52.9978 56.9287 52.6446 56.221C49.8193 50.5594 47.4211 51.1637 47.4211 51.1637V46.9015C41.1792 50.4639 23.2418 65.636 14.2075 73.3651C10.9879 76.1323 7.80127 78.327 7.80127 78.327C7.80127 78.327 9.57529 75.8142 11.1522 74.0966C16.2628 68.4778 25.5939 59.8693 33.5093 52.567C40.6042 46.0216 46.5617 40.5255 47.3226 39.1724C48.5709 38.7907 51.1663 39.0452 53.0389 39.5541C53.3345 39.6177 53.5973 39.8404 53.7288 40.0948C54.2544 41.0808 54.7472 41.0172 54.7472 41.0172C57.2768 39.7767 81.7846 44.6114 84.1828 48.3965C86.5482 52.2133 93.0858 51.9907 93.0858 51.9907C93.5873 51.4727 93.9528 51.0021 94.266 50.5988C95.1836 49.417 95.6528 48.8128 97.7837 49.2871C107.836 51.4818 114.834 54.3444 118.086 55.9984Z" fill="white"/>
</svg>
