<svg width="128" height="128" viewBox="0 0 128 128" fill="none" xmlns="http://www.w3.org/2000/svg">
<path fill-rule="evenodd" clip-rule="evenodd" d="M102.553 11.3355L123.376 50.4332C123.889 51.3969 124.093 52.4906 123.961 53.5702C123.828 54.6499 123.366 55.6649 122.635 56.4817L68.1189 117.386C67.6042 117.961 66.9705 118.421 66.2602 118.737C65.5498 119.052 64.7791 119.216 63.9994 119.216C63.2197 119.216 62.449 119.052 61.7387 118.737C61.0283 118.421 60.3947 117.961 59.88 117.386L5.36408 56.4817C4.633 55.6647 4.17106 54.6496 4.03908 53.57C3.90709 52.4903 4.11124 51.3967 4.62465 50.4332L25.4475 11.3355C25.9117 10.4642 26.61 9.73437 27.4667 9.22505C28.3234 8.71573 29.3058 8.44641 30.3073 8.44629H97.6934C98.6949 8.44641 99.6773 8.71573 100.534 9.22505C101.391 9.73437 102.089 10.4642 102.553 11.3355ZM94.1987 55.6449L67.4212 85.3046C66.9912 85.7812 66.4658 86.1623 65.8792 86.4231C65.2926 86.6839 64.6578 86.8186 64.0159 86.8186C63.3739 86.8186 62.7391 86.6839 62.1525 86.4231C61.5659 86.1623 61.0405 85.7812 60.6105 85.3046L33.8315 55.6449C33.016 54.7415 32.5928 53.5512 32.655 52.3358C32.7172 51.1204 33.2596 49.9795 34.163 49.1641C35.0664 48.3486 36.2567 47.9254 37.4721 47.9876C38.6874 48.0498 39.8284 48.5922 40.6438 49.4956L64.0159 75.3829L87.3879 49.4956C87.7891 49.0392 88.277 48.667 88.8232 48.4006C89.3695 48.1343 89.9632 47.9791 90.5698 47.9441C91.1765 47.9091 91.7841 47.9949 92.3574 48.1967C92.9306 48.3984 93.4581 48.712 93.9091 49.1192C94.3602 49.5265 94.7259 50.0193 94.9849 50.569C95.2439 51.1187 95.3912 51.7144 95.4182 52.3215C95.4451 52.9286 95.3512 53.535 95.1418 54.1055C94.9325 54.676 94.6119 55.1993 94.1987 55.6449Z" fill="white"/>
</svg>
