<svg width="128" height="128" viewBox="0 0 128 128" fill="none" xmlns="http://www.w3.org/2000/svg">
<path d="M93.1487 86.2087C87.345 95.8225 76.6475 101.754 65.07 101.776C53.4837 101.754 42.7875 95.8225 36.975 86.2087C36.0637 84.8425 36.0075 83.0762 36.835 81.6587C37.2573 80.9479 37.8608 80.362 38.5838 79.961C39.3068 79.5599 40.1234 79.3581 40.95 79.3762C42.655 79.3987 44.2037 80.3162 44.99 81.7637C49.1487 88.635 56.7912 92.8675 65.0712 92.8837C73.3425 92.87 80.9787 88.6375 85.13 81.7637C85.5488 81.0741 86.1391 80.5047 86.8433 80.111C87.5476 79.7174 88.3419 79.5129 89.1487 79.5175C89.9544 79.5099 90.7483 79.7107 91.4536 80.1003C92.1588 80.4899 92.7513 81.0552 93.1737 81.7412C93.5813 82.416 93.7956 83.1899 93.7931 83.9782C93.7907 84.7665 93.5717 85.539 93.16 86.2112M105.884 30.6125H22.4162C17.325 30.6125 13.195 34.5787 13.1875 39.47V110.691C13.1875 115.585 17.325 119.564 22.4162 119.564H105.884C110.984 119.556 115.105 115.59 115.112 110.697V39.4787C115.114 34.5862 110.977 30.62 105.884 30.6125ZM64.1512 17.27C71.815 17.27 78.05 23.26 78.05 30.6137H87.315C87.315 18.3525 76.9225 8.375 64.1512 8.375C51.3788 8.375 40.9863 18.3525 40.9863 30.6137H50.2525C50.2512 23.26 56.4863 17.27 64.1512 17.27Z" fill="white"/>
</svg>
