<svg width="128" height="128" viewBox="0 0 128 128" fill="none" xmlns="http://www.w3.org/2000/svg">
<path d="M56.1358 74.507H69.2451C67.6316 62.2175 89.7157 60.6146 89.7157 47.6127C89.7157 35.7686 79.0266 29.7129 64.4048 29.7129C53.6148 29.7129 44.7409 34.0765 38.2871 40.6665L46.556 47.3455C51.4972 42.8038 56.5392 40.3103 62.6905 40.3103C70.6569 40.3103 75.4972 43.3381 75.4972 48.7704C75.4972 57.4086 54.0182 60.5255 56.1358 74.507ZM62.7913 98.2843C67.8333 98.2843 71.6653 94.9893 71.6653 90.3585C71.6653 85.7277 67.8333 82.5218 62.7913 82.5218C57.6485 82.5218 53.8165 85.7277 53.8165 90.3585C53.8165 94.9893 57.5476 98.2843 62.7913 98.2843Z" fill="white"/>
<circle cx="64" cy="64" r="55.7143" stroke="white" stroke-width="8.57143"/>
</svg>
