<svg width="128" height="128" viewBox="0 0 128 128" fill="none" xmlns="http://www.w3.org/2000/svg">
<path fill-rule="evenodd" clip-rule="evenodd" d="M51.6361 27C49.7712 27.0005 47.9324 27.447 46.2681 28.3037C44.6037 29.1603 43.1602 30.4031 42.054 31.9319C40.9478 33.4607 40.2097 35.2328 39.8993 37.1053C39.5888 38.9777 39.7147 40.8983 40.2668 42.7122C40.6955 44.0373 40.7601 45.4566 40.4535 46.8164C40.147 48.1763 39.481 49.4248 38.5277 50.4269L31.0438 58.0475C30.3615 58.7376 29.5514 59.2828 28.6605 59.6515C27.7696 60.0201 26.8157 60.205 25.8541 60.1952C25.0446 60.1906 24.2402 60.0636 23.4674 59.8184C22.3222 59.4613 21.1312 59.2803 19.9335 59.2815C16.7686 59.2815 13.7332 60.5618 11.4953 62.8406C9.25728 65.1194 8 68.2102 8 71.433C8 74.6558 9.25728 77.7466 11.4953 80.0254C13.7332 82.3042 16.7686 83.5845 19.9335 83.5845C19.93 85.3367 20.2986 87.0689 21.0142 88.6624C21.7297 90.2559 22.7752 91.673 24.079 92.8165C25.3827 93.96 26.9139 94.8029 28.5676 95.2873C30.2213 95.7718 31.9583 95.8863 33.6595 95.6232C35.3607 95.36 36.9859 94.7253 38.4237 93.7626C39.6525 92.9398 40.7196 91.894 41.5728 90.6796C41.1217 90.048 40.7308 89.3727 40.4065 88.6624C39.8158 87.3684 39.4576 85.983 39.3458 84.5697C40.1343 84.73 40.9423 84.8125 41.7589 84.8125C41.7553 86.5646 42.13 88.2969 42.8575 89.8904C43.5849 91.4839 44.6479 92.901 45.9734 94.0445C47.2989 95.188 48.8556 96.0309 50.5368 96.5153C52.218 96.9998 53.984 97.1143 55.7136 96.8511C57.4432 96.588 59.0954 95.9533 60.5572 94.9906C61.3791 94.4493 62.1298 93.8115 62.7943 93.0926C62.2922 91.909 61.9846 90.6533 61.8822 89.3742C62.6718 89.5379 63.4816 89.6221 64.3 89.6221C64.2965 91.3455 64.6651 93.0493 65.3806 94.6167C66.0962 96.1841 67.1417 97.578 68.4454 98.7027C69.7492 99.8275 71.2804 100.657 72.9341 101.133C74.5878 101.61 76.3248 101.722 78.026 101.463C79.7272 101.205 81.3524 100.58 82.7902 99.6333C84.2279 98.6864 85.4442 97.4393 86.3556 95.9775C87.2671 94.5156 87.8521 92.8737 88.0705 91.1642C88.289 89.4547 88.1358 87.7181 87.6213 86.0735C87.193 84.7678 87.1296 83.3697 87.4377 82.0305C87.7459 80.6913 88.414 79.462 89.3697 78.4759L97.0571 70.7764C97.7394 70.0976 98.5496 69.5614 99.4404 69.1987C100.331 68.8361 101.285 68.6543 102.247 68.6639C103.056 68.6652 103.86 68.7869 104.634 69.0252C106.703 69.6695 108.91 69.7356 111.014 69.2163C113.119 68.6971 115.042 67.6123 116.576 66.0789C118.223 64.3974 119.338 62.2675 119.784 59.955C120.229 57.6426 119.984 55.25 119.081 53.0758C118.177 50.9016 116.654 49.0422 114.701 47.7297C112.749 46.4171 110.454 45.7095 108.103 45.6951H107.973C107.888 42.6274 106.638 39.7077 104.476 37.5324C103.565 36.6249 102.516 35.868 101.368 35.2901C99.704 34.4495 97.8663 34.0116 96.0026 34.0115V33.9652C94.1376 33.9657 92.2989 34.4049 90.6345 35.2475C88.9702 36.0901 87.5267 37.3125 86.4205 38.8163C85.3142 40.32 84.5762 42.063 84.2657 43.9048C83.9553 45.7466 84.0812 47.6357 84.6333 49.4198C85.062 50.7232 85.1265 52.1192 84.82 53.4568C84.5134 54.7943 83.8475 56.0224 82.8942 57.0081L75.4103 64.5037C74.728 65.1825 73.9179 65.7187 73.027 66.0814C72.1361 66.444 71.1822 66.6258 70.2206 66.6162C69.4111 66.6117 68.6067 66.4868 67.8338 66.2456C66.6887 65.8943 65.4976 65.7163 64.3 65.7175C61.1351 65.7175 58.0997 66.9768 55.8617 69.2183C53.6238 71.4597 52.3665 74.4999 52.3665 77.6698C52.3665 80.8397 53.6238 83.8799 55.8617 86.1213C56.4492 86.7098 57.0917 87.2305 57.777 87.6785C56.1492 87.0875 54.6535 86.1431 53.4057 84.8933C51.1677 82.6518 49.9105 79.6117 49.9105 76.4418C49.9105 73.2718 51.1677 70.2317 53.4057 67.9902C55.6437 65.7487 58.679 64.4895 61.844 64.4895C63.0416 64.4883 64.2327 64.6663 65.3778 65.0176C66.1507 65.2588 66.955 65.3837 67.7645 65.3882C68.7261 65.3978 69.6801 65.216 70.571 64.8534C71.4618 64.4907 72.2719 63.9545 72.9542 63.2757L80.4381 55.7801C81.3915 54.7944 82.0574 53.5663 82.364 52.2288C82.6705 50.8912 82.606 49.4952 82.1773 48.1918C81.6252 46.4076 81.4993 44.5186 81.8097 42.6768C82.1202 40.835 82.8582 39.092 83.9645 37.5883C84.3743 37.0312 84.8304 36.5127 85.3269 36.0378C84.7213 34.4845 83.8 33.0576 82.6047 31.8546C81.6785 30.932 80.6119 30.1625 79.4447 29.575C77.7529 28.7204 75.8845 28.2751 73.9898 28.2751V28.228C72.0938 28.2284 70.2244 28.675 68.5323 29.5317C66.8402 30.3883 65.3727 31.6311 64.248 33.1599C63.1233 34.6887 62.3729 36.4608 62.0573 38.3333C61.7417 40.2057 61.8697 42.1263 62.431 43.9401C62.8668 45.2653 62.9325 46.6846 62.6208 48.0444C62.3092 49.4042 61.6321 50.6528 60.6629 51.6549L53.0543 59.2755C52.3606 59.9656 51.537 60.5107 50.6312 60.8794C49.7255 61.2481 48.7557 61.433 47.7781 61.4232C46.9551 61.4186 46.1373 61.2916 45.3516 61.0464C44.1874 60.6893 42.9764 60.5083 41.7589 60.5095C38.5411 60.5095 35.4552 61.7897 33.1799 64.0686C30.9047 66.3474 29.6264 69.4382 29.6264 72.661C29.6264 75.8838 30.9047 78.9745 33.1799 81.2534C33.7809 81.8553 34.4385 82.3876 35.1401 82.845C33.498 82.2434 31.9891 81.2876 30.7289 80.0254C28.4537 77.7466 27.1754 74.6558 27.1754 71.433C27.1754 68.2102 28.4537 65.1194 30.7289 62.8406C33.0042 60.5618 36.0901 59.2815 39.3079 59.2815C40.5254 59.2803 41.7364 59.4613 42.9006 59.8184C43.6863 60.0636 44.5041 60.1906 45.3271 60.1952C46.3047 60.205 47.2745 60.0201 48.1803 59.6515C49.086 59.2828 49.9096 58.7376 50.6033 58.0475L58.2119 50.4269C59.1811 49.4248 59.8582 48.1763 60.1698 46.8164C60.4815 45.4566 60.4158 44.0373 59.98 42.7122C59.4187 40.8983 59.2907 38.9777 59.6063 37.1053C59.894 35.3987 60.5427 33.7756 61.5069 32.344C61.0961 31.7334 60.6293 31.1582 60.1098 30.6266C59.1988 29.704 58.1496 28.9346 57.0015 28.347C55.3375 27.4924 53.4998 27.0472 51.6361 27.0471V27Z" fill="white"/>
</svg>
